HIERARCHY
ROOT Hips
{
  OFFSET 5.84602e-005 68.8428 3.50346
  CHANNELS 6 Xposition Yposition Zposition Zrotation Xrotation Yrotation
  JOINT Spine
  {
    OFFSET 0 8.597 -4.6522
    CHANNELS 3 Zrotation Xrotation Yrotation
    JOINT Spine1
    {
      OFFSET 0 7.8454 0.4098
      CHANNELS 3 Zrotation Xrotation Yrotation
      JOINT Spine2
      {
        OFFSET 0 9.7078 -2.1609
        CHANNELS 3 Zrotation Xrotation Yrotation
        JOINT Neck
        {
          OFFSET 0 21.8761 -0.4549
          CHANNELS 3 Zrotation Xrotation Yrotation
          JOINT Head
          {
            OFFSET 0 12.3537 3.3602
            CHANNELS 3 Zrotation Xrotation Yrotation
            End Site
            {
              OFFSET 0.0001 18.9506 0.5657
            }
          }
        }
        JOINT LeftShoulder
        {
          OFFSET 2.2086 21.1115 7.2329
          CHANNELS 3 Zrotation Xrotation Yrotation
          JOINT LeftArm
          {
            OFFSET 13.1193 3.0282 -4.8998
            CHANNELS 3 Zrotation Xrotation Yrotation
            JOINT LeftForeArm
            {
              OFFSET 27.4081 -0.0973053 -0.2375
              CHANNELS 3 Zrotation Xrotation Yrotation
              JOINT LeftHand
              {
                OFFSET 22.8641 0.0662994 -0.1369
                CHANNELS 3 Zrotation Xrotation Yrotation
                JOINT LeftHandIndex1
                {
                  OFFSET 8.8614 0.775009 2.4612
                  CHANNELS 3 Zrotation Xrotation Yrotation
                  JOINT LeftHandIndex2
                  {
                    OFFSET 3.3146 -0.808304 0.5841
                    CHANNELS 3 Zrotation Xrotation Yrotation
                    JOINT LeftHandIndex3
                    {
                      OFFSET 2.2628 -0.552002 0.3989
                      CHANNELS 3 Zrotation Xrotation Yrotation
                      End Site
                      {
                        OFFSET 1.6102 -0.4807 0.2612
                      }
                    }
                  }
                }
                JOINT LeftHandMiddle1
                {
                  OFFSET 8.9937 0.895004 0.2143
                  CHANNELS 3 Zrotation Xrotation Yrotation
                  JOINT LeftHandMiddle2
                  {
                    OFFSET 4.0984 0.0113983 -0.0242
                    CHANNELS 3 Zrotation Xrotation Yrotation
                    JOINT LeftHandMiddle3
                    {
                      OFFSET 2.2716 0.00689697 -0.0138001
                      CHANNELS 3 Zrotation Xrotation Yrotation
                      End Site
                      {
                        OFFSET 2.0404 -0.1441 0.0027
                      }
                    }
                  }
                }
                JOINT LeftHandRing1
                {
                  OFFSET 8.5234 0.597198 -2.0164
                  CHANNELS 3 Zrotation Xrotation Yrotation
                  JOINT LeftHandRing2
                  {
                    OFFSET 3.7188 -0.188293 -0.2328
                    CHANNELS 3 Zrotation Xrotation Yrotation
                    JOINT LeftHandRing3
                    {
                      OFFSET 2.1191 -0.106598 -0.1332
                      CHANNELS 3 Zrotation Xrotation Yrotation
                      End Site
                      {
                        OFFSET 1.8737 -0.2304 -0.0886
                      }
                    }
                  }
                }
                JOINT LeftHandPinky1
                {
                  OFFSET 7.9094 -0.601089 -3.4825
                  CHANNELS 3 Zrotation Xrotation Yrotation
                  JOINT LeftHandPinky2
                  {
                    OFFSET 2.2874 -0.477005 -0.6314
                    CHANNELS 3 Zrotation Xrotation Yrotation
                    JOINT LeftHandPinky3
                    {
                      OFFSET 1.6774 -0.349396 -0.4633
                      CHANNELS 3 Zrotation Xrotation Yrotation
                      End Site
                      {
                        OFFSET 1.4888 -0.4091 -0.3416
                      }
                    }
                  }
                }
                JOINT LeftHandThumb1
                {
                  OFFSET 1.833 -1.3875 1.3896
                  CHANNELS 3 Zrotation Xrotation Yrotation
                  JOINT LeftHandThumb2
                  {
                    OFFSET 3.4129 -1.121 2.5732
                    CHANNELS 3 Zrotation Xrotation Yrotation
                    JOINT LeftHandThumb3
                    {
                      OFFSET 2.2474 -0.804199 1.6192
                      CHANNELS 3 Zrotation Xrotation Yrotation
                      End Site
                      {
                        OFFSET 1.6527 -0.5689 1.1317
                      }
                    }
                  }
                }
              }
            }
          }
        }
        JOINT RightShoulder
        {
          OFFSET -2.2086 21.1115 7.2329
          CHANNELS 3 Zrotation Xrotation Yrotation
          JOINT RightArm
          {
            OFFSET -13.1216 3.0287 -4.9007
            CHANNELS 3 Zrotation Xrotation Yrotation
            JOINT RightForeArm
            {
              OFFSET -27.4081 -0.0973053 -0.2375
              CHANNELS 3 Zrotation Xrotation Yrotation
              JOINT RightHand
              {
                OFFSET -22.8641 0.0664063 -0.1369
                CHANNELS 3 Zrotation Xrotation Yrotation
                JOINT RightHandIndex1
                {
                  OFFSET -8.8614 0.774994 2.4612
                  CHANNELS 3 Zrotation Xrotation Yrotation
                  JOINT RightHandIndex2
                  {
                    OFFSET -3.3146 -0.808304 0.5841
                    CHANNELS 3 Zrotation Xrotation Yrotation
                    JOINT RightHandIndex3
                    {
                      OFFSET -2.2628 -0.552002 0.3989
                      CHANNELS 3 Zrotation Xrotation Yrotation
                      End Site
                      {
                        OFFSET -1.6102 -0.4807 0.2612
                      }
                    }
                  }
                }
                JOINT RightHandMiddle1
                {
                  OFFSET -8.9937 0.894989 0.2143
                  CHANNELS 3 Zrotation Xrotation Yrotation
                  JOINT RightHandMiddle2
                  {
                    OFFSET -4.0984 0.0113983 -0.0242
                    CHANNELS 3 Zrotation Xrotation Yrotation
                    JOINT RightHandMiddle3
                    {
                      OFFSET -2.2716 0.00691223 -0.0138001
                      CHANNELS 3 Zrotation Xrotation Yrotation
                      End Site
                      {
                        OFFSET -2.0404 -0.1441 0.0027
                      }
                    }
                  }
                }
                JOINT RightHandRing1
                {
                  OFFSET -8.5234 0.597198 -2.0164
                  CHANNELS 3 Zrotation Xrotation Yrotation
                  JOINT RightHandRing2
                  {
                    OFFSET -3.7188 -0.188309 -0.2328
                    CHANNELS 3 Zrotation Xrotation Yrotation
                    JOINT RightHandRing3
                    {
                      OFFSET -2.1191 -0.106598 -0.1332
                      CHANNELS 3 Zrotation Xrotation Yrotation
                      End Site
                      {
                        OFFSET -1.8737 -0.2304 -0.0886
                      }
                    }
                  }
                }
                JOINT RightHandPinky1
                {
                  OFFSET -7.9094 -0.601105 -3.4825
                  CHANNELS 3 Zrotation Xrotation Yrotation
                  JOINT RightHandPinky2
                  {
                    OFFSET -2.2874 -0.477005 -0.6314
                    CHANNELS 3 Zrotation Xrotation Yrotation
                    JOINT RightHandPinky3
                    {
                      OFFSET -1.6774 -0.349396 -0.4633
                      CHANNELS 3 Zrotation Xrotation Yrotation
                      End Site
                      {
                        OFFSET -1.4888 -0.4091 -0.3416
                      }
                    }
                  }
                }
                JOINT RightHandThumb1
                {
                  OFFSET -1.833 -1.38751 1.3896
                  CHANNELS 3 Zrotation Xrotation Yrotation
                  JOINT RightHandThumb2
                  {
                    OFFSET -3.41299 -1.12099 2.5732
                    CHANNELS 3 Zrotation Xrotation Yrotation
                    JOINT RightHandThumb3
                    {
                      OFFSET -2.24741 -0.804108 1.6192
                      CHANNELS 3 Zrotation Xrotation Yrotation
                      End Site
                      {
                        OFFSET -1.6527 -0.5689 1.1317
                      }
                    }
                  }
                }
              }
            }
          }
        }
      }
    }
  }
  JOINT RightUpLeg
  {
    OFFSET -9.1966 3.8861 -0.7581
    CHANNELS 3 Zrotation Xrotation Yrotation
    JOINT RightLeg
    {
      OFFSET -0.7359 -41.0265 0
      CHANNELS 3 Zrotation Xrotation Yrotation
      JOINT RightFoot
      {
        OFFSET 0 -40.2855 0
        CHANNELS 3 Zrotation Xrotation Yrotation
        JOINT RightToeBase
        {
          OFFSET 0 -5.6122 11.7359
          CHANNELS 3 Zrotation Xrotation Yrotation
          End Site
          {
            OFFSET 0 0 7.8731
          }
        }
      }
    }
  }
  JOINT LeftUpLeg
  {
    OFFSET 9.1965 3.8864 -0.7581
    CHANNELS 3 Zrotation Xrotation Yrotation
    JOINT LeftLeg
    {
      OFFSET 0.7359 -41.0268 0
      CHANNELS 3 Zrotation Xrotation Yrotation
      JOINT LeftFoot
      {
        OFFSET 0 -40.2855 0
        CHANNELS 3 Zrotation Xrotation Yrotation
        JOINT LeftToeBase
        {
          OFFSET 0 -5.6122 11.7359
          CHANNELS 3 Zrotation Xrotation Yrotation
          End Site
          {
            OFFSET 0 0 7.8731
          }
        }
      }
    }
  }
}
MOTION
Frames:	6
Frame Time:	0.0333333
5.84602e-005 68.8428 3.50346 0 0 -0 0 0 -0 0 0 -0 0 0 -0 0 0 -0 0 0 -0 0 0 -0 0 0 -0 0 0 -0 0 0 -0 0 0 -0 0 0 -0 0 0 -0 0 0 -0 -0.0146107 -8.87603e-005 -2.63497e-007 2.99804e-018 -2.42657e-020 -1.42182e-022 0 0 -0 -0.0187562 -0.001176 5.858e-005 5.06224e-018 3.88251e-019 1.21329e-020 0 0 -0 -0.012269 -0.00324817 0.000675346 -1.74678e-018 3.88251e-019 -0 0 0 -0 0 0 -0 0 0 -0 0 0 -0 0 0 -0 0 0 -0 0 0 -0 0 0 -0 0 0 -0 0 0 -0 0 0 -0 0.0149955 -9.10982e-005 2.64101e-007 -9.69331e-018 1.21329e-020 -4.7394e-023 0 0 -0 0.0189956 -0.00119102 -5.96516e-005 -5.41541e-019 0 2.42657e-020 0 0 -0 0.0122698 -0.00324857 -0.000673756 -2.00796e-019 0 -1.94126e-019 0 0 -0 0 0 -0 0 0 -0 3.39842 1.33031 -0.0637918 -5.65207e-008 0.834868 -0.000436188 -3.39935 -2.16518 -0.0642563 -8.89002e-024 -1.18485e-023 -1.48106e-024 -3.39844 1.35642 0.0640283 -3.18788e-007 0.782166 -0.000588827 3.39931 -2.13858 0.0634662 1.1399e-023 0 -0 
-6.93049 18.0083 39.6731 -180 75.004 -180 -0.100355 -5.75323 -0.431086 -0.246347 -11.5055 -0.879061 -0.246347 -11.5055 -0.879061 -2.88675e-006 -31.0029 -8.32692e-007 4.86476e-007 -15.0017 1.13141e-007 -5.9104 -8.01677 -25.2493 6.93345 -1.13612 -20.1026 35.5922 -20.6854 -38.5886 9.56817 -7.74256 1.34717 3.18055e-015 1.68967e-015 1.19271e-015 -2.34489e-032 1.68967e-015 7.95139e-016 3.18055e-015 1.19271e-015 7.95139e-016 3.18055e-015 1.68967e-015 1.19271e-015 -0.0145516 -8.83917e-005 -2.57123e-007 3.18055e-015 -7.95139e-016 -3.97569e-016 3.18055e-015 1.68967e-015 1.19271e-015 -0.0187566 -0.00117497 6.1787e-005 -3.18055e-015 -9.44227e-015 -0 3.18055e-015 1.68967e-015 1.19271e-015 -0.0122539 -0.00324312 0.000672815 6.36111e-015 -1.11319e-014 1.19271e-015 3.18055e-015 1.68967e-015 1.19271e-015 -2.34489e-032 1.68967e-015 7.95139e-016 3.18055e-015 1.19271e-015 7.95139e-016 -3.1751 10.7115 -10.1403 122.89 24.4878 -37.9126 -8.25809 7.54619 21.1077 1.63962 -54.4709 36.0511 3.61739e-006 4.86642e-006 4.80208e-007 1.34257e-006 3.00191e-006 -1.62865e-007 -2.61204e-006 7.80891e-007 -4.65511e-007 3.61739e-006 4.86642e-006 4.80208e-007 0.0149814 -8.70555e-005 -4.52424e-007 -1.86459e-006 2.27461e-006 -1.61217e-006 3.61739e-006 4.86642e-006 4.80208e-007 0.0190027 -0.00118918 -4.83702e-005 -2.61013e-006 7.80693e-007 -4.65618e-007 3.61739e-006 4.86642e-006 4.80208e-007 0.0122572 -0.00324138 -0.000678278 -1.86463e-006 2.27466e-006 -1.61206e-006 3.61739e-006 4.86642e-006 4.80208e-007 1.34257e-006 3.00191e-006 -1.62865e-007 -2.61204e-006 7.80891e-007 -4.65511e-007 -107.443 -42.4457 -111.864 -58.2939 80.5801 66.4464 -29.4723 34.8028 57.5245 -7.90257e-007 5.83928e-009 3.17748e-007 107.468 -42.4542 111.853 58.1566 80.6147 -66.3189 29.4647 34.8323 -57.5448 5.99576e-007 2.5996e-006 4.22746e-007 
-6.93042 17.6461 39.7049 -180 76.1104 -180 -0.103503 -5.32511 -0.430043 -0.248973 -10.6493 -0.875507 -0.248973 -10.6493 -0.875507 1.48009e-005 -31.6138 4.43122e-006 1.11699e-007 -15.4459 -6.62281e-008 -5.30832 -8.7052 -25.4057 6.93345 -1.13613 -20.1026 35.344 -20.5025 -38.2378 10.1948 -8.11019 1.40343 3.18055e-015 -2.98177e-016 -3.97569e-016 -0 -1.98785e-016 -0 3.18055e-015 3.97569e-016 -3.97569e-016 3.18055e-015 -2.98177e-016 -3.97569e-016 -0.0146276 -9.09877e-005 1.51889e-006 -4.9453e-007 -4.08904e-007 1.76146e-007 3.18055e-015 -2.98177e-016 -3.97569e-016 -0.018658 -0.00117051 5.54074e-005 6.36111e-015 5.96354e-016 -3.97569e-016 3.18055e-015 -2.98177e-016 -3.97569e-016 -0.0121301 -0.00321049 0.00066828 -0 -1.37161e-014 -0 3.18055e-015 -2.98177e-016 -3.97569e-016 -0 -1.98785e-016 -0 3.18055e-015 3.97569e-016 -3.97569e-016 -1.97918 9.45737 -9.96367 121.155 23.1835 -38.2725 -7.65134 5.80906 23.298 2.74161 -54.6074 35.1216 -3.24499e-006 -7.86165e-007 -1.36552e-006 -1.32417e-031 2.38542e-015 3.18055e-015 -3.24499e-006 -7.86165e-007 -1.36552e-006 -3.24499e-006 -7.86165e-007 -1.36552e-006 0.0149619 -9.46389e-005 5.94706e-006 -1.55762e-006 -7.00891e-008 -1.66461e-006 -3.24499e-006 -7.86165e-007 -1.36552e-006 0.0190306 -0.00119668 -5.9102e-005 -3.2448e-006 -7.86407e-007 -1.36536e-006 -3.24499e-006 -7.86165e-007 -1.36552e-006 0.0122629 -0.00324612 -0.000672381 -3.24489e-006 -7.86366e-007 -1.36535e-006 -3.24499e-006 -7.86165e-007 -1.36552e-006 -1.32417e-031 2.38542e-015 3.18055e-015 -3.24499e-006 -7.86165e-007 -1.36552e-006 -106.217 -41.539 -111.057 -58.1576 80.5665 66.3013 -31.0184 34.1059 58.7309 8.25436e-007 6.31425e-006 1.77905e-007 106.244 -41.5838 111.02 58.0209 80.6011 -66.1749 30.9592 34.1467 -58.7123 -9.49189e-007 -3.30781e-008 -7.63335e-008 
-6.93035 17.284 39.7399 -180 77.2185 -180 -0.106612 -4.89137 -0.428669 -0.251491 -9.78179 -0.871303 -0.251491 -9.78177 -0.871303 -1.04079e-005 -32.2238 -4.85926e-006 -2.29458e-007 -15.8902 5.69174e-008 -4.70634 -9.39597 -25.5553 6.93344 -1.13614 -20.1026 35.0948 -20.3209 -37.8865 10.8227 -8.47741 1.46381 3.18055e-015 1.35174e-014 4.37326e-015 -3.18055e-015 1.2424e-014 3.18055e-015 -1.09244e-030 1.31198e-014 4.77083e-015 3.18055e-015 1.35174e-014 4.37326e-015 -0.0145949 -8.75773e-005 -2.47538e-006 -4.94902e-007 -4.0023e-007 1.87854e-007 3.18055e-015 1.35174e-014 4.37326e-015 -0.0187125 -0.0011739 6.22658e-005 -3.18055e-015 7.95139e-016 -3.97569e-016 3.18055e-015 1.35174e-014 4.37326e-015 -0.0122032 -0.00323141 0.000666475 6.36111e-015 1.2921e-015 -1.19271e-015 3.18055e-015 1.35174e-014 4.37326e-015 -3.18055e-015 1.2424e-014 3.18055e-015 -1.09244e-030 1.31198e-014 4.77083e-015 -0.778792 8.20223 -9.76038 119.416 21.8809 -38.6743 -6.97684 4.08847 25.511 3.84865 -54.7549 34.1892 -1.69151e-006 -1.07517e-006 2.63348e-007 8.38642e-031 1.51076e-014 -3.18055e-015 -3.18055e-015 1.27222e-014 -3.18055e-015 -1.69151e-006 -1.07517e-006 2.63348e-007 0.0149877 -8.72292e-005 4.88519e-006 -1.68997e-006 -1.07514e-006 2.63491e-007 -1.69151e-006 -1.07517e-006 2.63348e-007 0.0190094 -0.00119065 -6.47844e-005 -0 -8.74653e-015 -0 -1.69151e-006 -1.07517e-006 2.63348e-007 0.0122385 -0.00323912 -0.000679777 6.36111e-015 -6.36111e-015 -0 -1.69151e-006 -1.07517e-006 2.63348e-007 8.38642e-031 1.51076e-014 -3.18055e-015 -3.18055e-015 1.27222e-014 -3.18055e-015 -105.023 -40.6178 -110.286 -58.0228 80.5529 66.1587 -32.5365 33.381 59.9068 2.96507e-010 3.15877e-006 2.31401e-007 105.051 -40.6986 110.221 57.8853 80.5873 -66.032 32.4268 33.435 -59.8506 8.60493e-007 6.33231e-006 -5.97876e-007 
-6.93028 16.9222 39.778 -180 78.328 -180 -0.109729 -4.45261 -0.427129 -0.254023 -8.90427 -0.866786 -0.254022 -8.90426 -0.866786 2.03579e-005 -32.8353 5.54399e-006 -3.49388e-007 -16.3346 1.84067e-008 -4.10437 -10.0889 -25.698 6.93344 -1.13611 -20.1026 34.8446 -20.1408 -37.5346 11.4521 -8.84415 1.52833 -3.18055e-015 -9.93923e-017 -1.19271e-015 -3.18055e-015 -4.96962e-016 -7.95139e-016 -6.36111e-015 -1.98785e-016 -1.19271e-015 -3.18055e-015 -9.93923e-017 -1.19271e-015 -0.0146201 -8.73654e-005 -4.04365e-006 3.18055e-015 1.0635e-014 2.78299e-015 -3.18055e-015 -9.93923e-017 -1.19271e-015 -0.0187312 -0.00117562 5.97674e-005 3.18055e-015 1.19271e-015 -3.97569e-016 -3.18055e-015 -9.93923e-017 -1.19271e-015 -0.0122986 -0.00325625 0.000679534 3.18055e-015 -9.93923e-016 -0 -3.18055e-015 -9.93923e-017 -1.19271e-015 -3.18055e-015 -4.96962e-016 -7.95139e-016 -6.36111e-015 -1.98785e-016 -1.19271e-015 0.426672 6.94736 -9.53041 117.672 20.5825 -39.1173 -6.23497 2.3897 27.7478 4.96019 -54.9134 33.2546 3.31161e-006 8.99299e-007 1.19169e-006 2.28957e-006 2.04408e-006 4.82954e-007 3.31161e-006 8.99298e-007 1.19169e-006 3.31161e-006 8.99299e-007 1.19169e-006 0.0150263 -9.21875e-005 -4.57195e-007 3.31145e-006 8.99456e-007 1.19157e-006 3.31161e-006 8.99299e-007 1.19169e-006 0.0189711 -0.00118655 -5.26082e-005 3.31142e-006 8.9951e-007 1.19151e-006 3.31161e-006 8.99299e-007 1.19169e-006 0.0122486 -0.00324385 -0.000667457 3.31151e-006 8.99478e-007 1.19151e-006 3.31161e-006 8.99299e-007 1.19169e-006 2.28957e-006 2.04408e-006 4.82954e-007 3.31161e-006 8.99298e-007 1.19169e-006 -103.862 -39.6831 -109.549 -57.8879 80.5392 66.0172 -34.0263 32.6294 61.0517 -1.2163e-007 3.17849e-006 -4.44997e-008 103.89 -39.7996 109.456 57.7509 80.5737 -65.8915 33.8673 32.6983 -60.9593 2.47485e-008 3.16057e-006 -1.90224e-007 
-6.93022 16.5607 39.8191 -180 79.4388 -180 -0.112848 -4.00947 -0.425419 -0.256566 -8.01797 -0.861953 -0.256566 -8.01798 -0.861953 1.02265e-005 -33.4461 -2.86976e-006 3.28536e-007 -16.779 8.5424e-008 -3.50233 -10.7839 -25.8337 6.93344 -1.13613 -20.1026 34.5935 -19.962 -37.1822 12.0828 -9.21035 1.59709 3.18055e-015 -1.49089e-015 -7.95139e-016 3.18055e-015 -1.19271e-015 -7.95139e-016 -6.89673e-033 -9.93923e-016 -3.97569e-016 3.18055e-015 -1.49089e-015 -7.95139e-016 -0.0146282 -8.82616e-005 -5.94565e-006 -4.90518e-007 -3.81038e-007 2.11691e-007 3.18055e-015 -1.49089e-015 -7.95139e-016 -0.0186759 -0.00117078 5.72652e-005 -0 -1.54058e-014 -0 3.18055e-015 -1.49089e-015 -7.95139e-016 -0.0122841 -0.00325143 0.00067951 -3.18055e-015 -8.94531e-016 3.97569e-016 3.18055e-015 -1.49089e-015 -7.95139e-016 3.18055e-015 -1.19271e-015 -7.95139e-016 -6.89673e-033 -9.93923e-016 -3.97569e-016 1.6378 5.69384 -9.27374 115.923 19.2908 -39.601 -5.42627 0.717989 30.0091 6.07553 -55.083 32.3183 5.54315e-006 2.16591e-006 1.22902e-006 5.24584e-007 -5.72765e-007 3.38185e-007 5.24584e-007 -5.72765e-007 3.38185e-007 5.54315e-006 2.16591e-006 1.22902e-006 0.0149832 -9.61725e-005 5.35981e-007 5.24598e-007 -5.72721e-007 3.38259e-007 5.54315e-006 2.16591e-006 1.22902e-006 0.0189946 -0.00119052 -5.64891e-005 5.24606e-007 -5.7271e-007 3.38274e-007 5.54315e-006 2.16591e-006 1.22902e-006 0.0122077 -0.00323027 -0.000674264 5.24608e-007 -5.72729e-007 3.3823e-007 5.54315e-006 2.16591e-006 1.22902e-006 5.24584e-007 -5.72765e-007 3.38185e-007 5.24584e-007 -5.72765e-007 3.38185e-007 -102.731 -38.7359 -108.846 -57.7543 80.5255 65.8781 -35.4873 31.8523 62.165 -2.00459e-007 3.75953e-008 -4.93087e-007 102.758 -38.8878 108.724 57.6164 80.5599 -65.752 35.2803 31.9379 -62.0381 -2.40643e-007 -4.5202e-008 -5.91662e-007 
